<?xml version="1.0" encoding="UTF-8"?>
<svg width="199px" height="31px" viewBox="0 0 199 31" version="1.1" xmlns="http://www.w3.org/2000/svg" xmlns:xlink="http://www.w3.org/1999/xlink">
    <!-- Generator: Sketch 55.2 (78181) - https://sketchapp.com -->
    <title>Desktop</title>
    <desc>Created with Sketch.</desc>
    <g id="Desktop" stroke="none" stroke-width="1" fill="none" fill-rule="evenodd">
        <g id="Scotiabank_Corporate_Logo_4C_E" transform="translate(1.000000, 1.000000)" fill="#EC111A" fill-rule="nonzero">
            <path d="M47.6120574,8.65846154 C42.2600923,8.65846154 37.9214673,12.9289762 37.9214673,18.1969231 C37.9214673,23.4648699 42.2600923,27.7353846 47.6120574,27.7353846 C52.9640226,27.7353846 57.3026475,23.4648699 57.3026475,18.1969231 C57.3026475,15.6671658 56.2816776,13.2410208 54.4643394,11.4522122 C52.6470012,9.66340371 50.1821617,8.65846154 47.6120574,8.65846154 L47.6120574,8.65846154 Z M47.6120574,22.4030769 C45.8834102,22.4043216 44.3242736,21.3803147 43.6618725,19.8086816 C42.9994715,18.2370486 43.3642995,16.4274024 44.5861907,15.2238127 C45.8080818,14.0202231 47.6463226,13.6597981 49.2435058,14.3106501 C50.8406891,14.9615021 51.8821702,16.4954127 51.8821702,18.1969231 C51.8838971,20.5204171 49.9726069,22.4058345 47.6120574,22.4092308 L47.6120574,22.4030769 Z" id="Shape"></path>
            <polygon id="Path" points="69.6472089 9.11384615 67.0026156 9.11384615 67.0026156 3.48307692 61.2101435 3.48307692 61.2101435 9.11384615 58.5655502 9.11384615 58.5655502 14.2738462 61.2101435 14.2738462 61.2101435 27.2830769 67.0026156 27.2830769 67.0026156 14.2738462 69.6472089 14.2738462"></polygon>
            <rect id="Rectangle" x="72.3043062" y="9.11384615" width="5.79247209" height="18.1692308"></rect>
            <path d="M75.1989793,0.307692308 C73.4177008,0.309391257 71.9749268,1.7318108 71.9760765,3.48512622 C71.9772276,5.23844163 73.421867,6.65902565 75.2031463,6.65846005 C76.9844255,6.65789411 78.428134,5.2363927 78.428134,3.48307692 C78.4264087,1.72886282 76.9811721,0.307692308 75.1989793,0.307692308 Z" id="Path"></path>
            <path d="M158.272344,14.0092308 C160.173267,14.010895 161.716259,15.522792 161.726571,17.3938462 L161.726571,27.2707692 L167.515917,27.2707692 L167.515917,16.6246154 C167.515917,11.7846154 164.680638,8.65846154 160.204211,8.65846154 C158.362998,8.65846154 156.421754,9.45230769 154.821244,11.9938462 L154.821244,9.11384615 L149.028772,9.11384615 L149.028772,27.2830769 L154.821244,27.2830769 L154.821244,17.4061538 C154.824685,15.5314897 156.367781,14.0126177 158.272344,14.0092308 Z" id="Path"></path>
            <polygon id="Path" points="188.6289 27.2830769 181.511005 18.2061538 188.12874 9.11384615 181.357831 9.11384615 176.04051 16.4646154 176.04051 0.763076923 170.248038 0.763076923 170.248038 27.2830769 176.04051 27.2830769 176.04051 19.7938462 181.879872 27.2830769"></polygon>
            <path d="M17.9776077,22.4092308 C18.4078249,21.3455373 18.6100347,20.205798 18.571547,19.0615385 C18.571547,17.2153846 17.9901116,15.5876923 16.9272727,14.4461538 C15.676874,13.1107692 13.5762041,12.0061538 10.6440191,11.1538462 C10.0780981,10.9952264 9.52696438,10.789351 8.99661882,10.5384615 C8.53298554,10.319767 8.11683975,10.0146472 7.77122807,9.64 C7.40333926,9.23722758 7.21327663,8.70698617 7.24293461,8.16615385 C7.24293461,7.32307692 7.70245614,6.75076923 8.44956938,6.28923077 C9.38736842,5.70769231 11.1879426,5.65230769 13.0291547,6.32307692 C13.680422,6.55548587 14.308324,6.84699703 14.9047528,7.19384615 L17.3586603,2.36307692 C16.2624494,1.68112569 15.074453,1.15393579 13.8294099,0.796923077 C12.5442915,0.468317107 11.221548,0.303889339 9.8937799,0.307692308 C8.6421055,0.29029433 7.39728412,0.492423761 6.21760766,0.904615385 C5.16597449,1.31293951 4.2090215,1.92624072 3.40421053,2.70769231 C2.60033189,3.50058358 1.96300103,4.44157208 1.52861244,5.47692308 C1.10064739,6.54637081 0.888297643,7.68759902 0.903413078,8.83692308 C0.97507077,10.6596459 1.75898552,12.3847418 3.09161085,13.6523077 C4.77652313,15.2092308 6.68963317,15.7630769 7.46800638,16.0553846 C8.24637959,16.3476923 9.08414673,16.5938462 9.62494418,16.8061538 C10.1821904,17.011868 10.7138924,17.2792229 11.2098246,17.6030769 C11.5660478,17.8363559 11.8572804,18.1536924 12.0569697,18.5261538 C12.2288998,18.8877778 12.2907852,19.2906639 12.2351515,19.6861538 C12.1753431,20.2926783 11.8810076,20.8533811 11.4130144,21.2523077 C10.9159809,21.6984615 10.0125678,21.9630769 8.76216906,21.9630769 C7.64238855,21.9313352 6.54159411,21.6704117 5.52988836,21.1969231 C4.62623119,20.7973379 3.75012057,20.3399496 2.90717703,19.8276923 L0.00937799043,24.7938462 C2.02877193,26.56 5.30481659,27.7384695 8.22137161,27.7384695 C9.70793893,27.74003 11.1852625,27.5084076 12.5977671,27.0523077 C13.8077723,26.6574871 14.9302355,26.0392768 15.9050718,25.2307692 C16.7886058,24.4431148 17.4946263,23.4819424 17.9776077,22.4092308 L17.9776077,22.4092308 Z" id="Path"></path>
            <path d="M192.708325,20.9323077 C190.926639,20.9323077 189.482297,22.3539758 189.482297,24.1076923 C189.482297,25.8614088 190.926639,27.2830769 192.708325,27.2830769 C194.490012,27.2830769 195.934354,25.8614088 195.934354,24.1076923 C195.934354,23.2655279 195.59447,22.4578564 194.989472,21.8623563 C194.384474,21.2668562 193.563921,20.9323077 192.708325,20.9323077 Z M192.708325,26.6430769 C191.285738,26.6430769 190.132504,25.5079466 190.132504,24.1076923 C190.132504,22.707438 191.285738,21.5723077 192.708325,21.5723077 C194.130912,21.5723077 195.284147,22.707438 195.284147,24.1076923 C195.284147,25.5079466 194.130912,26.6430769 192.708325,26.6430769 Z" id="Shape"></path>
            <path d="M192.702073,24.6369231 L192.186284,24.6369231 L192.186284,25.84 L191.561085,25.84 L191.561085,22.3723036 L192.911515,22.3723036 C193.222415,22.3714906 193.520911,22.4922732 193.741337,22.7080845 C193.961763,22.9238958 194.086062,23.2170576 194.08689,23.5230769 C194.078653,23.9613656 193.812776,24.3551209 193.405423,24.5323077 L194.13378,25.84 L193.371037,25.84 L192.702073,24.6369231 Z M192.186284,24.0553846 L192.927145,24.0553846 C193.209065,24.0342413 193.426856,23.8029139 193.426856,23.5246154 C193.426856,23.2463169 193.209065,23.0149895 192.927145,22.9938462 L192.186284,22.9938462 L192.186284,24.0553846 Z" id="Shape"></path>
            <path d="M33.8420415,20.8338462 C32.7061453,22.2246177 30.8023105,22.7585218 29.0922998,22.1658453 C27.3822891,21.5731689 26.2383381,19.9829259 26.2383381,18.1984615 C26.2383381,16.4139972 27.3822891,14.8237542 29.0922998,14.2310777 C30.8023105,13.6384013 32.7061453,14.1723054 33.8420415,15.5630769 L37.6807656,11.7846154 C35.8473667,9.79272256 33.2435242,8.65710402 30.5128549,8.65846032 C25.1705263,8.65846032 20.5096651,12.4030769 20.5096651,18.1969231 C20.5096651,23.9907692 25.1611483,27.7353858 30.5128549,27.7353858 C33.2435242,27.7367421 35.8473667,26.6011236 37.6807656,24.6092308 L33.8420415,20.8338462 Z" id="Path"></path>
            <path d="M100.757129,27.2830769 L100.757129,9.12923077 L95.108453,9.12923077 L95.108453,11.0246154 L94.5864115,10.5630769 C93.2737933,9.3387468 91.5338405,8.65699573 89.7254864,8.65845918 C84.7426475,8.65845918 80.5319298,13.0276923 80.5319298,18.1969231 C80.5319298,23.3661538 84.7426475,27.7353902 89.7254864,27.7353902 C91.5349206,27.7376392 93.2761355,27.0558321 94.5895375,25.8307692 L95.1115789,25.3692308 L95.1115789,27.28 L100.757129,27.2830769 Z M90.6226475,22.4892584 C88.8511522,22.4954583 87.2505688,21.4498803 86.5682585,19.840709 C85.8859481,18.2315377 86.2565061,16.3762047 87.5069076,15.1410214 C88.7573091,13.905838 90.6408949,13.5344616 92.2781615,14.200299 C93.9154282,14.8661365 94.9834131,16.4378419 94.9834131,18.1815385 C94.9834131,20.5546161 93.0335579,22.4807555 90.6226475,22.4892584 Z" id="Shape"></path>
            <path d="M146.256013,27.2830769 L146.256013,9.12923077 L140.610463,9.12923077 L140.610463,11.0246154 L140.085295,10.5630769 C138.773379,9.33766517 137.032969,8.65573476 135.22437,8.65845339 C130.241531,8.65845339 126.030813,13.0276923 126.030813,18.1969231 C126.030813,23.3661538 130.241531,27.7353928 135.22437,27.7353928 C137.032969,27.7381114 138.773379,27.056181 140.085295,25.8307692 L140.610463,25.3692308 L140.610463,27.28 L146.256013,27.2830769 Z M136.124657,22.4892706 C134.352883,22.4967049 132.751343,21.4519215 132.068047,19.8428533 C131.38475,18.2337851 131.754532,16.37795 133.004684,15.1421277 C134.254835,13.9063055 136.138664,13.5343613 137.776314,14.200014 C139.413965,14.8656667 140.482297,16.437563 140.482297,18.1815385 C140.482297,20.5534202 138.534346,22.4790656 136.124657,22.4892706 Z" id="Shape"></path>
            <path d="M109.397384,27.2830769 L109.397384,25.3723077 L109.922552,25.8338462 C111.235778,27.0591794 112.977108,27.7410313 114.786603,27.7384688 C119.769442,27.7384688 123.980159,23.3692308 123.980159,18.2 C123.980159,13.0307692 119.769442,8.66153846 114.786603,8.66153846 C112.977108,8.65896871 111.235778,9.34082063 109.922552,10.5661538 L109.397384,11.0246154 L109.397384,0.76 L103.751834,0.76 L103.751834,27.2830769 L109.397384,27.2830769 Z M109.52555,18.1969231 C109.534183,15.8303738 111.4872,13.9171982 113.891507,13.9200276 C116.295814,13.9228633 118.244172,15.8406351 118.247053,18.2071979 C118.249928,20.5737607 116.306239,22.4961178 113.901946,22.5046154 C112.741254,22.5046154 111.6281,22.0507705 110.807367,21.2429215 C109.986633,20.4350725 109.52555,19.3393941 109.52555,18.1969231 L109.52555,18.1969231 Z" id="Shape"></path>
        </g>
    </g>
</svg>